<svg id="Layer_1" data-name="Layer 1" xmlns="http://www.w3.org/2000/svg" viewBox="0 0 1292.6 300"><defs><style>.cls-1{fill:#1d1d1b;}.cls-2{fill:#575756;}</style></defs><title>Incredible India</title><g id="Group_21658" data-name="Group 21658"><g id="Group_21645" data-name="Group 21645"><path id="Path_26708" data-name="Path 26708" class="cls-1" d="M0,172.35v-6.21H20.23V14.56H0v-6H65.7v6H44.8V166.14H65.7v6.21Z"/><path id="Path_26709" data-name="Path 26709" class="cls-1" d="M71.54,172.34v-5.75H84.65V80.34H71.32v-5.6h4.49a104.27,104.27,0,0,0,14.46-.67c4.71-.68,9.06-1,13-1.73v28.4a46.74,46.74,0,0,1,14.9-21,34.55,34.55,0,0,1,21.8-7.47,27.46,27.46,0,0,1,20,7.47,27,27,0,0,1,7.12,20V167h12.74v5.76H134.86V167h13.25V98.88a23.13,23.13,0,0,0-3.67-14.2A14.29,14.29,0,0,0,133.13,80a24.73,24.73,0,0,0-20.45,12.26,50.74,50.74,0,0,0-8.61,29.89v44.1h13v5.68H72.1Z"/><path id="Path_26710" data-name="Path 26710" class="cls-1" d="M261.29,142h5.85a44.36,44.36,0,0,1-15,24.74A42.48,42.48,0,0,1,225,175.56a45,45,0,0,1-34-14.2,50.47,50.47,0,0,1-13-36.25A53.07,53.07,0,0,1,192.3,87.74a47.31,47.31,0,0,1,35.95-14.95,41.73,41.73,0,0,1,26.07,7.47A23.1,23.1,0,0,1,264.51,99.4a12.91,12.91,0,0,1-3.29,9.19,11.26,11.26,0,0,1-9,3.51,9.65,9.65,0,0,1-7.49-3.21,11.33,11.33,0,0,1-3-7.92,13.66,13.66,0,0,1,3.75-9c2.4-3,3.67-4.7,3.67-5.61,0-2.39-1.95-4.48-6-6.2a37.43,37.43,0,0,0-15-2.62,23.32,23.32,0,0,0-21.5,11,69.24,69.24,0,0,0-6.16,35.2,73.23,73.23,0,0,0,6.22,35.06A21.65,21.65,0,0,0,227,169.36a33.56,33.56,0,0,0,21.8-7.47A36.33,36.33,0,0,0,261.27,142"/><path id="Path_26711" data-name="Path 26711" class="cls-1" d="M266.09,172.34v-5.75h16.1V80.34H266.46v-5.6a161.23,161.23,0,0,0,18.12-.67c5.84-.68,11.16-.9,16.33-1.73v25A58.44,58.44,0,0,1,314.09,79a22.86,22.86,0,0,1,15.51-6,14,14,0,0,1,10.34,3.43,12.45,12.45,0,0,1,3.67,9.65,10,10,0,0,1-2.85,7.47,10.88,10.88,0,0,1-15-.45,10.53,10.53,0,0,1-3-7.47,9.64,9.64,0,0,1,0-2.4,9.88,9.88,0,0,0,0-1.72,2.73,2.73,0,0,0,0-1.27s-.45-.44-.67-.44c-4.35,0-9.06,4.11-13.77,12.1a47.43,47.43,0,0,0-7.49,24.44v49.48h17.9v6.06H265.56Z"/><path id="Path_26712" data-name="Path 26712" class="cls-1" d="M363.4,108.74h45.92v-2.53a39.91,39.91,0,0,0-4.95-22.41,18.6,18.6,0,0,0-16.18-6.87,20.71,20.71,0,0,0-17.68,8A44.15,44.15,0,0,0,363,108.79m-.59,7.47v7.43a71.62,71.62,0,0,0,6.21,35.2A23.61,23.61,0,0,0,390.44,169a34.15,34.15,0,0,0,22.47-7.47A37.32,37.32,0,0,0,425.26,141h5.4a42.22,42.22,0,0,1-14.38,25.78,45.11,45.11,0,0,1-28.47,8.68,45.8,45.8,0,0,1-34-14.2A47.61,47.61,0,0,1,340,126.61a55.69,55.69,0,0,1,14-38.26A44.1,44.1,0,0,1,388.5,72.64a39.93,39.93,0,0,1,30,11.14,50.56,50.56,0,0,1,12.66,32.29H362.8Z"/><path id="Path_26713" data-name="Path 26713" class="cls-1" d="M514.64,142.52h0V108.29A28.52,28.52,0,0,0,506,87.44a26.54,26.54,0,0,0-20-9,19.56,19.56,0,0,0-18.8,10.31,79.11,79.11,0,0,0-5.55,34.76,79.58,79.58,0,0,0,5.78,36.15A20.38,20.38,0,0,0,486.63,170a26.17,26.17,0,0,0,19.17-8.59,25.44,25.44,0,0,0,8.84-18.91m19-140.57V166.37h13.34v5.53a148.55,148.55,0,0,0-18.51.67,100.07,100.07,0,0,0-13.33,2V157a34.35,34.35,0,0,1-13,13.74,33.68,33.68,0,0,1-17.83,5,40.58,40.58,0,0,1-31.69-14.94,54,54,0,0,1-13-36.77,53.1,53.1,0,0,1,13-36.31,40.32,40.32,0,0,1,31.84-15,33.86,33.86,0,0,1,18.35,4.7,30.65,30.65,0,0,1,11.84,14.2V9.42H498.7V4.49h3.89a121,121,0,0,0,15-.6c4.64-.6,10.63-1.12,16-1.95Z"/><path id="Path_26714" data-name="Path 26714" class="cls-1" d="M551.27,172.34v-5.75H567.6V80.34h-15v-5.6h4.71a108.65,108.65,0,0,0,15-.67c4.8-.68,9.67-1,14.16-1.73v94.25h14.24v5.75Z"/><path id="Path_26715" data-name="Path 26715" class="cls-1" d="M637.2,111.36h0v28.32a28.87,28.87,0,0,0,8,21.08A26.46,26.46,0,0,0,665,169.13a19.47,19.47,0,0,0,18.73-10.31,84.25,84.25,0,0,0,5.4-36.32,78,78,0,0,0-5.39-35.06A19.8,19.8,0,0,0,665,78a25.47,25.47,0,0,0-19.78,9.42,38.44,38.44,0,0,0-7.48,23.91M605.06,171.9v-5.39h14V9.57H605.73V4.78c5.18,0,10.34-.59,15.51-1S632,2.84,637.8,2V91.7a33.36,33.36,0,0,1,11.83-14.42,34.51,34.51,0,0,1,18.12-4.48,39.5,39.5,0,0,1,31,14.94,52.75,52.75,0,0,1,12.66,36.1,53.79,53.79,0,0,1-12.66,36.47,40.24,40.24,0,0,1-31.91,14.95,31.53,31.53,0,0,1-30.56-18.91v18.91a142,142,0,0,0-15-1.49A143.06,143.06,0,0,0,605.06,171.9Z"/><path id="Path_26716" data-name="Path 26716" class="cls-1" d="M710.46,172.35v-5.76h17.91V9.64H709.94V4.71c6.44,0,13-.36,19.18-.82s12.51-1.12,18.73-1.72V166.59h18.57v5.76Z"/><path id="Path_26717" data-name="Path 26717" class="cls-1" d="M784.33,108.74h45.92v-2.53a39.91,39.91,0,0,0-5-22.41,18.61,18.61,0,0,0-16.18-6.87,20.71,20.71,0,0,0-17.68,8,44.24,44.24,0,0,0-7.12,23.86m-.82,7.47v7.43a72.56,72.56,0,0,0,6.22,35.2A23.68,23.68,0,0,0,811.52,169,34.11,34.11,0,0,0,834,161.51,37.37,37.37,0,0,0,846.49,141h5.32a41.85,41.85,0,0,1-14.53,25.71,44.52,44.52,0,0,1-28.69,8.67,45.76,45.76,0,0,1-34-14.2,47.61,47.61,0,0,1-13.77-34.6,55.73,55.73,0,0,1,14-38.27,44.19,44.19,0,0,1,34.46-15.69,39.88,39.88,0,0,1,30,11.14,50.48,50.48,0,0,1,12.66,32.28H783.66Z"/><path id="Path_26718" data-name="Path 26718" class="cls-1" d="M900.89,173.46A1100.27,1100.27,0,0,0,889.72,41.25c-1.12-7.47-1.57-12-1.57-13.3a43.51,43.51,0,0,1,3.67-19.58A16,16,0,0,1,903.88,0a15.72,15.72,0,0,1,12.29,8.37A42.43,42.43,0,0,1,919.84,28c0,1.5-.45,5.76-1.5,13.31A1078,1078,0,0,0,907,173.47Z"/><path id="Path_26719" data-name="Path 26719" class="cls-1" d="M925.45,172.34v-5.75h13.11V80.34H925.22v-5.6h4.5a104.06,104.06,0,0,0,14.45-.67c4.71-.68,9.06-1,13-1.73v28.4a46.81,46.81,0,0,1,15-21,34.53,34.53,0,0,1,21.8-7.47A24.67,24.67,0,0,1,1021,99.32v67.27h12.76v5.75H988.31v-5.75h13.77V98.88a22.33,22.33,0,0,0-3.67-14.2A13.93,13.93,0,0,0,987,80,24.73,24.73,0,0,0,966.5,92.24a50.82,50.82,0,0,0-8.62,29.89v44.1h13v5.68H925.92Z"/><path id="Path_26720" data-name="Path 26720" class="cls-1" d="M1106.37,142.52h0V108.29a28.55,28.55,0,0,0-8.61-20.85,26.71,26.71,0,0,0-20-9A19.47,19.47,0,0,0,1059,88.79a78.8,78.8,0,0,0-5.62,34.75,79.37,79.37,0,0,0,5.84,36.16A20.29,20.29,0,0,0,1078.43,170a26,26,0,0,0,19.1-8.59,25.44,25.44,0,0,0,8.84-18.91m19-140.57V166.37h13.41v5.53a149.67,149.67,0,0,0-18.58.67,99.83,99.83,0,0,0-13.33,2V157a34.78,34.78,0,0,1-12.89,13.74,34,34,0,0,1-17.9,5,40.58,40.58,0,0,1-31.69-14.94A53.92,53.92,0,0,1,1031.46,124a53,53,0,0,1,12.88-36.33,40.43,40.43,0,0,1,31.92-14.94,33.59,33.59,0,0,1,18.27,4.7,30.64,30.64,0,0,1,11.84,14.22V9.42h-15.88V4.49h3.82a120.82,120.82,0,0,0,15-.6C1113.94,3.29,1120,2.77,1125.32,1.94Z"/><path id="Path_26721" data-name="Path 26721" class="cls-1" d="M1144.42,172.34v-5.75h16.64V80.34h-15.51v-5.6h4.71a110.24,110.24,0,0,0,15-.67c4.87-.68,9.89-1,14.23-1.73v94.25h14.23v5.75Z"/><path id="Path_26722" data-name="Path 26722" class="cls-1" d="M1256.12,121.22h0a62,62,0,0,0-31.24,6.43,20.34,20.34,0,0,0-10.79,18.68,19.81,19.81,0,0,0,5,14,18,18,0,0,0,13.41,5.16,25.79,25.79,0,0,0,17-5.61,17.79,17.79,0,0,0,6.67-15Zm.67,37.37a33.4,33.4,0,0,1-14,12.26,46.55,46.55,0,0,1-20.29,4.56,28.72,28.72,0,0,1-19.56-6.28,20.84,20.84,0,0,1-7.5-16.52,29.92,29.92,0,0,1,16.18-26.91,86.7,86.7,0,0,1,44.57-10.09V91.76A12,12,0,0,0,1251.47,81,24.3,24.3,0,0,0,1237,77.56a32.42,32.42,0,0,0-13.76,2.76c-3.9,2-6.07,3.89-6.07,5.83a16.35,16.35,0,0,0,3.44,3.89,10.53,10.53,0,0,1,3.45,7.47,10.32,10.32,0,0,1-2.77,7.47,9.45,9.45,0,0,1-7.12,3,9.21,9.21,0,0,1-7.49-3.21,12.69,12.69,0,0,1-2.77-8.82,20.09,20.09,0,0,1,10.78-17.19,51.32,51.32,0,0,1,27.79-6.87,39,39,0,0,1,25.17,6.06,25.29,25.29,0,0,1,7.5,21v55.67a20.85,20.85,0,0,0,1,7.48c.67,1.27,2,1.72,3.89,1.72a7.47,7.47,0,0,0,5.4-2.62,15.84,15.84,0,0,0,3.22-6.42h3.89a21.7,21.7,0,0,1-6.29,14.2,18.69,18.69,0,0,1-13.77,5.38,14.17,14.17,0,0,1-10.93-4.11,18.33,18.33,0,0,1-4.8-11.66Z"/><path id="Path_26723" data-name="Path 26723" class="cls-2" d="M927.18,216a23.29,23.29,0,1,0-24.11,22.4h.81A22.9,22.9,0,0,0,927.18,216"/><path id="Path_26724" data-name="Path 26724" class="cls-1" d="M627.53,224.21a6.05,6.05,0,0,1,1.72-4.26,5.71,5.71,0,0,1,4.27-1.72,6.07,6.07,0,1,1-6,6.15v-.17m0,52.31c0-4.11.36-7.47.36-10.53V248.35a90.36,90.36,0,0,0-.36-9.87h8.84a10.7,10.7,0,0,0,2.77,0,70.69,70.69,0,0,1-.45,9.87,65.18,65.18,0,0,0,0,9.27V266a92.71,92.71,0,0,0,.45,10.54,13.59,13.59,0,0,0-3,0h-8.62Zm-26.3-33.93a6.37,6.37,0,0,0-6.06,3.81,29.18,29.18,0,0,0-1.95,12.26,26.15,26.15,0,0,0,1.72,10.76,6.67,6.67,0,0,0,5.85,3.44,6.15,6.15,0,0,0,5.84-3.88,24.94,24.94,0,0,0,2-10.92,32.53,32.53,0,0,0-1.72-11.66,6.23,6.23,0,0,0-5.4-3.73Zm7.5,33.93v-5.37a15.07,15.07,0,0,1-4.57,4.93,13.1,13.1,0,0,1-6.89,1.49,14.52,14.52,0,0,1-11.83-4.93,23.34,23.34,0,0,1-3.9-14.58,23.86,23.86,0,0,1,4.35-14.94A14.22,14.22,0,0,1,598,237.73a12.78,12.78,0,0,1,5.85,1.35,12.08,12.08,0,0,1,4.49,3.81V216.74a18.3,18.3,0,0,0,2.77,0h8.84c0,3.44-.36,7.47-.6,12s0,10.46,0,18.24v16.51c0,4.94,0,9.27.37,12.94a6.29,6.29,0,0,1-2.78-.45h-2.77a12.26,12.26,0,0,0-2.84,0,5.3,5.3,0,0,1-2.48.52Zm-68.55,0c0-3.43.45-6.86.45-9.86V247.9a64.54,64.54,0,0,0-.45-9.42,9.65,9.65,0,0,0,2.63,0h7.94v5.37a17.49,17.49,0,0,1,5.39-4.7,13.85,13.85,0,0,1,6.89-1.57,14.68,14.68,0,0,1,5.39,1.12,9.37,9.37,0,0,1,4.12,2.77,10.91,10.91,0,0,1,1.87,3.88,30.31,30.31,0,0,1,.68,7.47v17.72a63,63,0,0,0,.45,6.43,15.75,15.75,0,0,0-3.22,0H563.7V258.31a31,31,0,0,0-1.27-11.21,5.12,5.12,0,0,0-4.95-2.53,5.49,5.49,0,0,0-5.17,3,22.45,22.45,0,0,0-1.5,10.09v19.09a13.59,13.59,0,0,0-3,0H542.2a12.65,12.65,0,0,1-2-.22Zm-19.77-52.31a6.05,6.05,0,0,1,1.72-4.26,5.71,5.71,0,0,1,4.27-1.72,6.07,6.07,0,1,1-6,6.15v-.17Zm0,52.31c0-4.11.36-7.47.36-10.53V248.35a90.36,90.36,0,0,0-.36-9.87h8.76a10.46,10.46,0,0,0,2.85,0c0,3.44-.45,6.66-.45,9.87V266a92.63,92.63,0,0,0,.45,10.53,15,15,0,0,0-3,0Zm-30-22.79H504v-1.87a17,17,0,0,0-1.5-8.15,5,5,0,0,0-4.79-2.76,5.83,5.83,0,0,0-5.32,3.21,16.76,16.76,0,0,0-1.95,9v.6Zm0,3.88a17.53,17.53,0,0,0,3.75,11.44,10.62,10.62,0,0,0,8.84,4,15.9,15.9,0,0,0,5.39-.82,18.46,18.46,0,0,0,4.95-2.84l.82.67-1.72,4.49a24.77,24.77,0,0,1-5.77,2.84,29.07,29.07,0,0,1-7.49.82,19.52,19.52,0,0,1-15-5.38,21.06,21.06,0,0,1-5.4-14.95,19,19,0,0,1,5.17-14,18.48,18.48,0,0,1,14-5.38,17.12,17.12,0,0,1,12.74,4.56A18.46,18.46,0,0,1,515,256.19v2.39Zm-28.17,18.91c0-4.48.45-9.26.45-14V230.71a136.72,136.72,0,0,0-.45-13.73,20.6,20.6,0,0,0,3.22.44h2.63a11.67,11.67,0,0,0,2.77,0,20.6,20.6,0,0,0,3.22-.44v59.55a10,10,0,0,0-2.77-.45h-3a13.14,13.14,0,0,0-3.07,0Zm-43.74,0c0-3.43.44-7.47.67-12.25s0-10.54,0-17.64V229a66.24,66.24,0,0,0-.67-12.19,32.89,32.89,0,0,0,3.44,0h2.62a9.82,9.82,0,0,0,2.54,0h3.3v25.34a12.51,12.51,0,0,1,4.71-3.66,15.94,15.94,0,0,1,17.45,4.11,21,21,0,0,1,4.12,13.73,23.14,23.14,0,0,1-5,15.48,16.21,16.21,0,0,1-13.11,5.75,13.32,13.32,0,0,1-6.21-1.27,20.6,20.6,0,0,1-5.17-4.11,21.09,21.09,0,0,0-3.67,2.17,23.44,23.44,0,0,0-3.23,2.39h-1.55Zm19-34.15a6.38,6.38,0,0,0-6.07,3.66,29.85,29.85,0,0,0-1.72,12.63,29.1,29.1,0,0,0,1.72,11.66,5.7,5.7,0,0,0,5.62,3.44,6.3,6.3,0,0,0,6-3.89,30.17,30.17,0,0,0,2-12.93,25.4,25.4,0,0,0-1.72-11.14,6.08,6.08,0,0,0-5.77-3.36Zm-39-18.16a6.43,6.43,0,0,1,1.72-4.26,5.89,5.89,0,0,1,4.35-1.72,6.06,6.06,0,0,1,4.27,1.72,6.4,6.4,0,0,1,1.42,4.26,6.26,6.26,0,0,1-1.72,4.34,6.06,6.06,0,0,1-4.27,1.72,6.18,6.18,0,0,1-4.35-1.72A6.29,6.29,0,0,1,398.53,224.21Zm0,52.31c0-4.11.45-7.47.45-10.53V248.35a74,74,0,0,0-.45-9.87h8.84a9.89,9.89,0,0,0,2.77,0v38a13.68,13.68,0,0,0-3,0h-8.61Zm-26.3-33.93a6.23,6.23,0,0,0-6,3.81,28.24,28.24,0,0,0-1.95,12.26A25,25,0,0,0,366,269.42a6.42,6.42,0,0,0,5.76,3.44,6.17,6.17,0,0,0,5.85-3.88,25.08,25.08,0,0,0,1.95-10.92,32.32,32.32,0,0,0-1.73-11.66,6.15,6.15,0,0,0-5.62-3.73Zm7.49,33.93v-5.37a13.8,13.8,0,0,1-4.49,4.93,13.19,13.19,0,0,1-6.89,1.49,15,15,0,0,1-11.91-4.93,23.38,23.38,0,0,1-3.82-14.58,24.31,24.31,0,0,1,4.27-14.94,14.56,14.56,0,0,1,12.06-5.39,12.5,12.5,0,0,1,5.85,1.35,12.08,12.08,0,0,1,4.49,3.81V216.74a19.37,19.37,0,0,0,2.85,0H391c0,3.44-.45,7.47-.67,12s0,10.46,0,18.24v16.51a111.77,111.77,0,0,0,.45,12.94,6.43,6.43,0,0,1-2.85-.45h-2.77a10.78,10.78,0,0,0-2.78,0,5.72,5.72,0,0,1-2.77.52Zm-54.83-22.41h13.56v-2.24a17,17,0,0,0-1.5-8.15,5,5,0,0,0-4.8-2.76,6,6,0,0,0-5.4,3.21,17.64,17.64,0,0,0-1.87,9Zm0,3.89a17.51,17.51,0,0,0,3,11.06,10.48,10.48,0,0,0,8.85,4,15.48,15.48,0,0,0,5.31-.82,18.74,18.74,0,0,0,5-2.84l.83.67-1.73,4.48a23.75,23.75,0,0,1-5.84,2.84,27.81,27.81,0,0,1-7.49.82,19.51,19.51,0,0,1-15-5.38,21.06,21.06,0,0,1-5.4-14.95,19,19,0,0,1,5.17-14,18.49,18.49,0,0,1,14-5.38,17.12,17.12,0,0,1,12.74,4.56,18.47,18.47,0,0,1,4.27,13.08v2.39Zm-37.46,18.91c0-2.62.45-5.61.45-8.6v-21.9a71.65,71.65,0,0,0-.45-7.47,10.46,10.46,0,0,0,3,.22h8.62v10.09h0a15.87,15.87,0,0,1,4.57-8.37,11,11,0,0,1,7.49-2.77h.45a6.25,6.25,0,0,1-.45,2.77c-.45.89,0,1.94,0,2.76a22.47,22.47,0,0,0,0,3.07,13.77,13.77,0,0,0,.45,3,22.49,22.49,0,0,0-3-.9,7.89,7.89,0,0,0-2.17,0,6.62,6.62,0,0,0-5.85,2.84,15,15,0,0,0-1.72,8.6v9a51,51,0,0,0,.45,8.37,15,15,0,0,0-3,0h-5.62a17.62,17.62,0,0,0-3.07-1.12Zm-5.17-7.47.68.44a25.78,25.78,0,0,1-.45,2.77v1.72a13.79,13.79,0,0,1-5.85,2.62,19.46,19.46,0,0,1-6.44.82,20.26,20.26,0,0,1-15-5.31,20.09,20.09,0,0,1,14.83-34.6,26,26,0,0,1,7.5.82,22,22,0,0,1,6,2.62c-.82,1.87-1.5,3.43-2,4.7a25.62,25.62,0,0,0-1,3.43l-1-.44a10.85,10.85,0,0,0-3.23-5.61,8,8,0,0,0-5.39-1.72,8.23,8.23,0,0,0-7.49,4.11,21.59,21.59,0,0,0-2.77,11.36,20.93,20.93,0,0,0,3,12,9.8,9.8,0,0,0,8.62,4.11,13.48,13.48,0,0,0,4.95-.82,18.4,18.4,0,0,0,5.24-3.43Zm-73,7.47c0-3.44.45-6.87.45-9.87V248.28a64.41,64.41,0,0,0-.45-9.42,10.52,10.52,0,0,0,2.63,0h7.94v5.38a17.42,17.42,0,0,1,5.4-4.7,13.81,13.81,0,0,1,6.88-1.57,14.55,14.55,0,0,1,5.92,1.2,10.8,10.8,0,0,1,4.12,2.77,11.08,11.08,0,0,1,1.87,3.88,30.3,30.3,0,0,1,.67,7.47v17.27a63,63,0,0,0,.45,6.43,15.75,15.75,0,0,0-3.22,0h-8.61c0-2.17.36-4.94.36-8.15V258.31a31.26,31.26,0,0,0-1.27-11.21,5.13,5.13,0,0,0-5-2.53,5.48,5.48,0,0,0-5.17,3,22.45,22.45,0,0,0-1.5,10.09v19.09a13.57,13.57,0,0,0-2.85,0h-5.62a16.82,16.82,0,0,1-2.92-.22Zm-19.77-52.32a6.05,6.05,0,0,1,1.72-4.26,5.75,5.75,0,0,1,4.27-1.72,6.07,6.07,0,1,1-6,6.15Zm0,52.32V238.86h8.84a10.7,10.7,0,0,0,2.77,0c0,3.44-.45,6.65-.45,9.87v17.63a92.71,92.71,0,0,0,.45,10.54,13.68,13.68,0,0,0-3,0h-5.84a5.22,5.22,0,0,0-2.62-.36Zm-20.29-5.61a6.18,6.18,0,0,1,2-4.48,6.52,6.52,0,0,1,4.79-1.95,5.82,5.82,0,0,1,4.49,1.95,6.15,6.15,0,0,1,2,4.48,6.47,6.47,0,0,1-2,4.56,6.16,6.16,0,0,1-4.49,1.87,5.93,5.93,0,0,1-4.57-1.87,5.3,5.3,0,0,1-2-4.86Zm-45.26,5.23c-1.57-5.61-3.44-11.36-5.39-17.64s-4.12-12.87-6.66-20.41a9.89,9.89,0,0,0,2.77,0h9.06c1.73,5.84,3,11,4.27,15s2.4,8.15,3.45,11.57c1.49-4.7,3.07-9.42,4.34-14s2.54-8.74,3.67-12.85a6.17,6.17,0,0,0,2.1,0h6.89c1.12,4.11,2.4,8.37,3.67,12.85s2.62,9.27,4.12,14c1.72-5.53,3.22-10.54,4.49-14.95s2.62-8.37,3.45-12a3.13,3.13,0,0,0,1.49,0h4.8c-2.4,6.2-4.57,12.48-6.67,18.68s-4.35,12.71-6.3,19.36a7.51,7.51,0,0,0-1.87.45h-6.67c-1-3.66-2.09-7.47-3.44-11.57s-2.77-8.82-4.49-14.2c-1.28,4-2.63,8.37-3.9,12.71s-2.85,8.67-4,13.08Zm-55.8,0c-1.49-5.61-3.44-11.36-5.39-17.64S58.59,246,56,238.48a10,10,0,0,0,2.78,0h8.84c1.72,5.84,3,11,4.35,15s2.32,8.15,3.44,11.57c1.5-4.7,3-9.42,4.27-14s2.62-8.74,3.67-12.85a6.59,6.59,0,0,0,2.17,0h6.89c1,4.11,2.32,8.37,3.67,12.85s2.53,9.27,4,14c1.73-5.53,3.22-10.54,4.57-14.95s2.54-8.37,3.45-12a2.9,2.9,0,0,0,1.49,0h4.71c-2.4,6.2-4.49,12.48-6.66,18.68s-4.55,13.25-6.21,19.83a7.89,7.89,0,0,0-2.17,0H92.65c-1.13-3.66-2.18-7.47-3.45-11.57s-2.85-8.82-4.57-14.2c-1.27,4-2.53,8.37-3.89,12.71s-2.54,8.59-4,13.08h-8.6Zm-56,0c-1.5-5.61-3.45-11.36-5.4-17.64S2.63,246,0,238.49a11.33,11.33,0,0,0,2.85,0h8.76c1.72,5.83,3.07,11,4.35,14.95s2.4,8.14,3.44,11.56c1.5-4.7,3-9.41,4.27-14s2.63-8.75,3.67-12.86a6.65,6.65,0,0,0,2.18,0h6.88c1.05,4.11,2.4,8.38,3.67,12.86s2.54,9.27,4.12,14c1.73-5.53,3.22-10.53,4.49-14.94s2.63-8.38,3.45-12a3.17,3.17,0,0,0,1.5,0h4.71c-2.33,6.21-4.5,12.48-6.67,18.69s-4.27,12.7-6.22,19.36a8.17,8.17,0,0,0-2.24.44H36.55c-1-3.66-2.18-7.47-3.45-11.56s-2.77-8.82-4.49-14.2c-1.35,4-2.62,8.37-3.9,12.7s-2.53,8.68-4,13.08H14a15.86,15.86,0,0,1-1.95,0Z"/><path id="Path_26725" data-name="Path 26725" class="cls-1" d="M784.85,250.15a12.7,12.7,0,0,0,1.49,7.47,5.48,5.48,0,0,0,9.06,0,17.56,17.56,0,0,0,1.5-7.93,11.47,11.47,0,0,0-1.5-6.5,5.12,5.12,0,0,0-4.35-2.1,5.33,5.33,0,0,0-4.49,2.32,11.71,11.71,0,0,0-1.72,7.48m-3.68,28.4v-.68a7.54,7.54,0,0,1-3.67-2.31,6.34,6.34,0,0,1-1.27-3.89,6.84,6.84,0,0,1,2.17-4.93,16,16,0,0,1,6-3.89v-.9a12.74,12.74,0,0,1-7.49-3.81,10.71,10.71,0,0,1-2.63-7.47,11.09,11.09,0,0,1,4.57-9.27,19,19,0,0,1,12.06-3.43l5.4.44h12.06a22.15,22.15,0,0,0,3.82,0V243h-7.94a7.47,7.47,0,0,1,3,3.44,10.34,10.34,0,0,1,1.13,4.7,11.4,11.4,0,0,1-4.8,9.71,21.81,21.81,0,0,1-13.1,3.44h-1.28a3,3,0,0,0-2.62,1.27,3.75,3.75,0,0,0-1,2.53c0,2.39,3.67,3.89,11.39,4.11h1.27a25.7,25.7,0,0,1,9.52,1.49,9.81,9.81,0,0,1,3.67,3.89,11.72,11.72,0,0,1,1.27,5.61,15,15,0,0,1-6,12A26.07,26.07,0,0,1,790.9,300a23.5,23.5,0,0,1-12.51-2.77,9.93,9.93,0,0,1,3-17.63Zm3.68.44a7.49,7.49,0,0,0-3,2.77,8.5,8.5,0,0,0-1.12,4.26,7.46,7.46,0,0,0,2.84,6.5,10,10,0,0,0,7.49,2.32,15.35,15.35,0,0,0,8.4-2.1,6.93,6.93,0,0,0,3-6.05,7.5,7.5,0,0,0-2-5.39,11.7,11.7,0,0,0-6.44-1.94Zm-37.46-3.21V246a71.59,71.59,0,0,0,0-7.47h11.16v10.1H759a16.3,16.3,0,0,1,4.5-8.37,11.15,11.15,0,0,1,7.49-2.77h.45a6.27,6.27,0,0,1-.45,2.77c-.45.89,0,1.94,0,2.76a20.42,20.42,0,0,0,.45,6.06c-1.12-.45-2.18-.68-2.85-.9a8.2,8.2,0,0,0-2.32,0,6.84,6.84,0,0,0-5.85,2.62,17.58,17.58,0,0,0-1.72,8.59v9a50.89,50.89,0,0,0,.45,8.37H753.3a12.83,12.83,0,0,0-2.77,0,18.45,18.45,0,0,0-3.14-.3Zm-33-18.91a28.61,28.61,0,0,0,2,12.71,6.73,6.73,0,0,0,6.22,3.58,6.88,6.88,0,0,0,6.44-3.58,30.41,30.41,0,0,0,2-12.7A31.48,31.48,0,0,0,729,244.69a7.5,7.5,0,0,0-10.34-2.32,7.34,7.34,0,0,0-2.32,2.32,30.13,30.13,0,0,0-2,13Zm-11.84,0A18.4,18.4,0,0,1,719,237.45a19,19,0,0,1,3.54,0,18.05,18.05,0,0,1,20,15.84,17.74,17.74,0,0,1,0,4.12,19.43,19.43,0,0,1-5.32,14.94,19.92,19.92,0,0,1-34.83-14.64Zm-17.45,13.3a5.73,5.73,0,0,1,1.87-4.48,6.63,6.63,0,0,1,4.79-1.95,5.83,5.83,0,0,1,4.5,1.95,6.21,6.21,0,0,1,2,4.48,6.51,6.51,0,0,1-2,4.56,6.19,6.19,0,0,1-4.5,1.87,6.09,6.09,0,0,1-4.57-1.87A5.24,5.24,0,0,1,685,271ZM666.54,256a16.75,16.75,0,0,0-7.94,3.43A10.12,10.12,0,0,0,657.55,271a4.27,4.27,0,0,0,3.6,1.72,4.64,4.64,0,0,0,4.12-1.94,9,9,0,0,0,1.5-5.31v-9.69Zm.45,15.9a9.2,9.2,0,0,1-4.49,4.26,11.84,11.84,0,0,1-6.3,1.49,10.62,10.62,0,0,1-7.94-3,11.09,11.09,0,0,1-2.85-8.14,9.84,9.84,0,0,1,2-6.21,11.85,11.85,0,0,1,6.52-3.88c.83-.45,2.33-.68,4-1.35a32.93,32.93,0,0,0,8.61-3.44v-1.26a7.46,7.46,0,0,0-2.09-5.76,6.84,6.84,0,0,0-5.4-2.17,8.6,8.6,0,0,0-4.94,1.49A15,15,0,0,0,650,248.4a26.33,26.33,0,0,1-.9-3,5.55,5.55,0,0,0-.82-2.17,23.83,23.83,0,0,1,6.88-4.49,17.84,17.84,0,0,1,7.49-1.49,16.45,16.45,0,0,1,10.94,3.21,11.56,11.56,0,0,1,3.89,9.42V265.8a12.11,12.11,0,0,0,1.13,6.27,5.07,5.07,0,0,0,4,1.27h0v2a16.53,16.53,0,0,1-4.12,1.27,30.63,30.63,0,0,1-4,.45,7,7,0,0,1-4.71-1.5,4.53,4.53,0,0,1-2.85-3.88Z"/></g></g></svg>